<svg id="visual" viewBox="0 0 512 512" width="512" height="512" xmlns="http://www.w3.org/2000/svg" xmlns:xlink="http://www.w3.org/1999/xlink" version="1.1"><g stroke-width="1" stroke-linejoin="bevel"><path d="M218.6 276.4L247.4 314.4L267.4 311.3Z" fill="#f3b2bd" stroke="#f3b2bd"></path><path d="M267.4 311.3L312.4 228.6L218.6 276.4Z" fill="#ce8994" stroke="#ce8994"></path><path d="M312.4 228.6L193.6 217.6L218.6 276.4Z" fill="#da97a2" stroke="#da97a2"></path><path d="M145.7 270.4L188.6 340.3L218.6 276.4Z" fill="#863b48" stroke="#863b48"></path><path d="M218.6 276.4L188.6 340.3L247.4 314.4Z" fill="#924854" stroke="#924854"></path><path d="M266.4 397.2L312.3 353.3L267.4 311.3Z" fill="#ffc0cb" stroke="#ffc0cb"></path><path d="M266.4 397.2L267.4 311.3L247.4 314.4Z" fill="#f3b2bd" stroke="#f3b2bd"></path><path d="M380.3 320.4L361.3 235.6L312.4 228.6Z" fill="#e6a4af" stroke="#e6a4af"></path><path d="M312.4 228.6L195.6 194.7L193.6 217.6Z" fill="#ffc0cb" stroke="#ffc0cb"></path><path d="M164.7 203.6L145.7 270.4L193.6 217.6Z" fill="#c27c87" stroke="#c27c87"></path><path d="M193.6 217.6L145.7 270.4L218.6 276.4Z" fill="#ce8994" stroke="#ce8994"></path><path d="M195.6 194.7L164.7 203.6L193.6 217.6Z" fill="#aa626d" stroke="#aa626d"></path><path d="M228.6 399.2L266.4 397.2L247.4 314.4Z" fill="#b66f7a" stroke="#b66f7a"></path><path d="M380.3 320.4L312.4 228.6L267.4 311.3Z" fill="#924854" stroke="#924854"></path><path d="M312.4 228.6L261.4 143.7L195.6 194.7Z" fill="#da97a2" stroke="#da97a2"></path><path d="M188.6 340.3L228.6 399.2L247.4 314.4Z" fill="#ffc0cb" stroke="#ffc0cb"></path><path d="M138.7 329.3L184.7 382.2L188.6 340.3Z" fill="#e6a4af" stroke="#e6a4af"></path><path d="M188.6 340.3L184.7 382.2L228.6 399.2Z" fill="#b66f7a" stroke="#b66f7a"></path><path d="M145.7 270.4L138.7 329.3L188.6 340.3Z" fill="#b66f7a" stroke="#b66f7a"></path><path d="M384.2 323.4L380.3 320.4L383.2 342.3Z" fill="#924854" stroke="#924854"></path><path d="M312.3 353.3L380.3 320.4L267.4 311.3Z" fill="#da97a2" stroke="#da97a2"></path><path d="M353.3 172.7L261.4 143.7L312.4 228.6Z" fill="#924854" stroke="#924854"></path><path d="M195.6 194.7L140.7 156.7L164.7 203.6Z" fill="#9e5560" stroke="#9e5560"></path><path d="M383.2 342.3L380.3 320.4L312.3 353.3Z" fill="#f3b2bd" stroke="#f3b2bd"></path><path d="M380.3 320.4L438.1 288.4L361.3 235.6Z" fill="#da97a2" stroke="#da97a2"></path><path d="M145.7 270.4L118.8 335.3L138.7 329.3Z" fill="#ffc0cb" stroke="#ffc0cb"></path><path d="M138.7 329.3L118.8 335.3L184.7 382.2Z" fill="#924854" stroke="#924854"></path><path d="M74.9 315.3L118.8 335.3L145.7 270.4Z" fill="#b66f7a" stroke="#b66f7a"></path><path d="M389.2 417.2L383.2 342.3L312.3 353.3Z" fill="#c27c87" stroke="#c27c87"></path><path d="M374.3 144.8L353.3 172.7L416.2 149.8Z" fill="#e6a4af" stroke="#e6a4af"></path><path d="M361.3 235.6L353.3 172.7L312.4 228.6Z" fill="#863b48" stroke="#863b48"></path><path d="M140.7 156.7L114.8 225.6L164.7 203.6Z" fill="#c27c87" stroke="#c27c87"></path><path d="M164.7 203.6L114.8 225.6L145.7 270.4Z" fill="#c27c87" stroke="#c27c87"></path><path d="M217.6 101.8L140.7 156.7L195.6 194.7Z" fill="#aa626d" stroke="#aa626d"></path><path d="M85.9 212.6L84.8 257.4L114.8 225.6Z" fill="#9e5560" stroke="#9e5560"></path><path d="M114.8 225.6L84.8 257.4L145.7 270.4Z" fill="#ffc0cb" stroke="#ffc0cb"></path><path d="M383.2 342.3L425.1 316.3L384.2 323.4Z" fill="#aa626d" stroke="#aa626d"></path><path d="M384.2 323.4L425.1 316.3L380.3 320.4Z" fill="#da97a2" stroke="#da97a2"></path><path d="M140.7 156.7L85.9 212.6L114.8 225.6Z" fill="#f3b2bd" stroke="#f3b2bd"></path><path d="M70.9 278.4L74.9 315.3L145.7 270.4Z" fill="#ffc0cb" stroke="#ffc0cb"></path><path d="M118.8 335.3L140.7 430.1L184.7 382.2Z" fill="#9e5560" stroke="#9e5560"></path><path d="M70.9 278.4L145.7 270.4L84.8 257.4Z" fill="#da97a2" stroke="#da97a2"></path><path d="M0 284.4L70.9 278.4L0 265.6Z" fill="#b66f7a" stroke="#b66f7a"></path><path d="M279.4 62.9L217.6 101.8L261.4 143.7Z" fill="#da97a2" stroke="#da97a2"></path><path d="M261.4 143.7L217.6 101.8L195.6 194.7Z" fill="#863b48" stroke="#863b48"></path><path d="M436.2 202.6L353.3 172.7L361.3 235.6Z" fill="#ffc0cb" stroke="#ffc0cb"></path><path d="M353.3 172.7L311.4 83.8L261.4 143.7Z" fill="#da97a2" stroke="#da97a2"></path><path d="M228.6 399.2L270.4 463.1L266.4 397.2Z" fill="#863b48" stroke="#863b48"></path><path d="M266.4 397.2L371.3 432.2L312.3 353.3Z" fill="#f3b2bd" stroke="#f3b2bd"></path><path d="M383.2 342.3L462.1 417.2L425.1 316.3Z" fill="#ffc0cb" stroke="#ffc0cb"></path><path d="M243.6 491.1L270.4 463.1L228.6 399.2Z" fill="#ce8994" stroke="#ce8994"></path><path d="M140.7 430.1L228.6 399.2L184.7 382.2Z" fill="#aa626d" stroke="#aa626d"></path><path d="M425.1 316.3L438.1 288.4L380.3 320.4Z" fill="#924854" stroke="#924854"></path><path d="M104.8 433.2L140.7 430.1L118.8 335.3Z" fill="#c27c87" stroke="#c27c87"></path><path d="M303.3 468.1L371.3 432.2L266.4 397.2Z" fill="#aa626d" stroke="#aa626d"></path><path d="M512 316.3L512 249.4L438.1 288.4Z" fill="#da97a2" stroke="#da97a2"></path><path d="M371.3 432.2L389.2 417.2L312.3 353.3Z" fill="#ffc0cb" stroke="#ffc0cb"></path><path d="M270.4 463.1L303.3 468.1L266.4 397.2Z" fill="#aa626d" stroke="#aa626d"></path><path d="M447.1 234.6L436.2 202.6L361.3 235.6Z" fill="#ce8994" stroke="#ce8994"></path><path d="M438.1 288.4L447.1 234.6L361.3 235.6Z" fill="#c27c87" stroke="#c27c87"></path><path d="M447.1 234.6L439.1 204.7L436.2 202.6Z" fill="#f3b2bd" stroke="#f3b2bd"></path><path d="M436.2 202.6L416.2 149.8L353.3 172.7Z" fill="#f3b2bd" stroke="#f3b2bd"></path><path d="M217.6 101.8L170.7 95.9L140.7 156.7Z" fill="#b66f7a" stroke="#b66f7a"></path><path d="M140.7 156.7L98.8 136.8L85.9 212.6Z" fill="#924854" stroke="#924854"></path><path d="M413.2 75.9L311.4 83.8L374.3 144.8Z" fill="#863b48" stroke="#863b48"></path><path d="M374.3 144.8L311.4 83.8L353.3 172.7Z" fill="#da97a2" stroke="#da97a2"></path><path d="M217.6 101.8L212.6 0L170.7 95.9Z" fill="#da97a2" stroke="#da97a2"></path><path d="M158.7 0L160.7 94.8L170.7 95.9Z" fill="#f3b2bd" stroke="#f3b2bd"></path><path d="M170.7 95.9L160.7 94.8L140.7 156.7Z" fill="#da97a2" stroke="#da97a2"></path><path d="M512 178.7L416.2 149.8L436.2 202.6Z" fill="#924854" stroke="#924854"></path><path d="M114.8 87.9L98.8 136.8L140.7 156.7Z" fill="#924854" stroke="#924854"></path><path d="M0 265.6L70.9 278.4L84.8 257.4Z" fill="#e6a4af" stroke="#e6a4af"></path><path d="M140.7 430.1L243.6 491.1L228.6 399.2Z" fill="#f3b2bd" stroke="#f3b2bd"></path><path d="M270.4 463.1L293.4 512L303.3 468.1Z" fill="#f3b2bd" stroke="#f3b2bd"></path><path d="M56.9 374.2L104.8 433.2L118.8 335.3Z" fill="#863b48" stroke="#863b48"></path><path d="M140.7 430.1L227.6 512L243.6 491.1Z" fill="#e6a4af" stroke="#e6a4af"></path><path d="M413.2 75.9L412.2 137.7L421.1 78.8Z" fill="#c27c87" stroke="#c27c87"></path><path d="M416.2 149.8L412.2 137.7L374.3 144.8Z" fill="#924854" stroke="#924854"></path><path d="M0 354.3L56.9 374.2L74.9 315.3Z" fill="#b66f7a" stroke="#b66f7a"></path><path d="M74.9 315.3L56.9 374.2L118.8 335.3Z" fill="#da97a2" stroke="#da97a2"></path><path d="M114.8 87.9L85.8 139.7L98.8 136.8Z" fill="#da97a2" stroke="#da97a2"></path><path d="M98.8 136.8L85.8 139.7L85.9 212.6Z" fill="#e6a4af" stroke="#e6a4af"></path><path d="M70.9 278.4L0 284.4L74.9 315.3Z" fill="#9e5560" stroke="#9e5560"></path><path d="M264.6 19.9L279.4 62.9L277.4 0Z" fill="#9e5560" stroke="#9e5560"></path><path d="M311.4 83.8L279.4 62.9L261.4 143.7Z" fill="#aa626d" stroke="#aa626d"></path><path d="M344.3 512L367.2 475.1L303.3 468.1Z" fill="#ce8994" stroke="#ce8994"></path><path d="M303.3 468.1L367.2 475.1L371.3 432.2Z" fill="#9e5560" stroke="#9e5560"></path><path d="M371.3 432.2L447.1 454.1L389.2 417.2Z" fill="#da97a2" stroke="#da97a2"></path><path d="M138.7 512L227.6 512L140.7 430.1Z" fill="#c27c87" stroke="#c27c87"></path><path d="M243.6 491.1L293.4 512L270.4 463.1Z" fill="#ce8994" stroke="#ce8994"></path><path d="M43.9 441.1L89.8 447.1L104.8 433.2Z" fill="#ce8994" stroke="#ce8994"></path><path d="M104.8 433.2L138.7 512L140.7 430.1Z" fill="#aa626d" stroke="#aa626d"></path><path d="M227.6 512L293.4 512L243.6 491.1Z" fill="#b66f7a" stroke="#b66f7a"></path><path d="M158.7 0L114.8 87.9L160.7 94.8Z" fill="#da97a2" stroke="#da97a2"></path><path d="M160.7 94.8L114.8 87.9L140.7 156.7Z" fill="#aa626d" stroke="#aa626d"></path><path d="M293.4 512L344.3 512L303.3 468.1Z" fill="#ce8994" stroke="#ce8994"></path><path d="M389.2 417.2L462.1 417.2L383.2 342.3Z" fill="#924854" stroke="#924854"></path><path d="M438.1 288.4L512 249.4L447.1 234.6Z" fill="#e6a4af" stroke="#e6a4af"></path><path d="M447.1 454.1L462.1 417.2L389.2 417.2Z" fill="#924854" stroke="#924854"></path><path d="M447.1 454.1L371.3 432.2L367.2 475.1Z" fill="#9e5560" stroke="#9e5560"></path><path d="M0 265.6L84.8 257.4L85.9 212.6Z" fill="#924854" stroke="#924854"></path><path d="M56.9 374.2L43.9 441.1L104.8 433.2Z" fill="#da97a2" stroke="#da97a2"></path><path d="M0 265.6L85.9 212.6L0 161.7Z" fill="#da97a2" stroke="#da97a2"></path><path d="M27.9 142.7L85.9 212.6L85.8 139.7Z" fill="#e6a4af" stroke="#e6a4af"></path><path d="M89.8 447.1L138.7 512L104.8 433.2Z" fill="#863b48" stroke="#863b48"></path><path d="M421.1 78.8L512 85.8L458.1 54.9Z" fill="#ffc0cb" stroke="#ffc0cb"></path><path d="M412.2 137.7L413.2 75.9L374.3 144.8Z" fill="#9e5560" stroke="#9e5560"></path><path d="M512 178.7L436.2 202.6L439.1 204.7Z" fill="#9e5560" stroke="#9e5560"></path><path d="M410.2 512L447.1 454.1L367.2 475.1Z" fill="#aa626d" stroke="#aa626d"></path><path d="M351.3 29.9L279.4 62.9L311.4 83.8Z" fill="#863b48" stroke="#863b48"></path><path d="M279.4 62.9L264.6 19.9L217.6 101.8Z" fill="#e6a4af" stroke="#e6a4af"></path><path d="M512 316.3L438.1 288.4L425.1 316.3Z" fill="#9e5560" stroke="#9e5560"></path><path d="M447.1 234.6L512 238.6L439.1 204.7Z" fill="#ce8994" stroke="#ce8994"></path><path d="M512 410.2L512 316.3L462.1 417.2Z" fill="#aa626d" stroke="#aa626d"></path><path d="M462.1 417.2L512 316.3L425.1 316.3Z" fill="#ffc0cb" stroke="#ffc0cb"></path><path d="M0 284.4L0 354.3L74.9 315.3Z" fill="#f3b2bd" stroke="#f3b2bd"></path><path d="M89.8 447.1L92.8 512L138.7 512Z" fill="#f3b2bd" stroke="#f3b2bd"></path><path d="M512 249.4L512 238.6L447.1 234.6Z" fill="#e6a4af" stroke="#e6a4af"></path><path d="M512 85.8L412.2 137.7L416.2 149.8Z" fill="#f3b2bd" stroke="#f3b2bd"></path><path d="M413.2 75.9L351.3 29.9L311.4 83.8Z" fill="#ce8994" stroke="#ce8994"></path><path d="M0 373.2L43.9 441.1L56.9 374.2Z" fill="#9e5560" stroke="#9e5560"></path><path d="M21.9 91.8L27.9 142.7L85.8 139.7Z" fill="#924854" stroke="#924854"></path><path d="M0 354.3L0 373.2L56.9 374.2Z" fill="#da97a2" stroke="#da97a2"></path><path d="M364.3 0L351.3 29.9L385.2 0Z" fill="#c27c87" stroke="#c27c87"></path><path d="M512 238.6L512 178.7L439.1 204.7Z" fill="#f3b2bd" stroke="#f3b2bd"></path><path d="M27.9 142.7L0 161.7L85.9 212.6Z" fill="#ffc0cb" stroke="#ffc0cb"></path><path d="M344.3 512L410.2 512L367.2 475.1Z" fill="#b66f7a" stroke="#b66f7a"></path><path d="M67.9 512L92.8 512L89.8 447.1Z" fill="#da97a2" stroke="#da97a2"></path><path d="M351.3 29.9L277.4 0L279.4 62.9Z" fill="#924854" stroke="#924854"></path><path d="M264.6 19.9L212.6 0L217.6 101.8Z" fill="#c27c87" stroke="#c27c87"></path><path d="M277.4 0L212.6 0L264.6 19.9Z" fill="#aa626d" stroke="#aa626d"></path><path d="M114.8 87.9L21.9 91.8L85.8 139.7Z" fill="#f3b2bd" stroke="#f3b2bd"></path><path d="M27.9 142.7L0 112.8L0 161.7Z" fill="#ce8994" stroke="#ce8994"></path><path d="M512 481.1L512 410.2L462.1 417.2Z" fill="#f3b2bd" stroke="#f3b2bd"></path><path d="M512 481.1L462.1 417.2L447.1 454.1Z" fill="#da97a2" stroke="#da97a2"></path><path d="M212.6 0L158.7 0L170.7 95.9Z" fill="#b66f7a" stroke="#b66f7a"></path><path d="M0 460.1L67.9 512L43.9 441.1Z" fill="#ffc0cb" stroke="#ffc0cb"></path><path d="M43.9 441.1L67.9 512L89.8 447.1Z" fill="#863b48" stroke="#863b48"></path><path d="M76.9 34.9L21.9 91.8L114.8 87.9Z" fill="#b66f7a" stroke="#b66f7a"></path><path d="M158.7 0L76.9 34.9L114.8 87.9Z" fill="#aa626d" stroke="#aa626d"></path><path d="M385.2 0L351.3 29.9L413.2 75.9Z" fill="#863b48" stroke="#863b48"></path><path d="M351.3 29.9L364.3 0L277.4 0Z" fill="#da97a2" stroke="#da97a2"></path><path d="M458.1 54.9L413.2 75.9L421.1 78.8Z" fill="#aa626d" stroke="#aa626d"></path><path d="M0 27.9L0 112.8L21.9 91.8Z" fill="#c27c87" stroke="#c27c87"></path><path d="M21.9 91.8L0 112.8L27.9 142.7Z" fill="#da97a2" stroke="#da97a2"></path><path d="M410.2 512L451.1 512L447.1 454.1Z" fill="#f3b2bd" stroke="#f3b2bd"></path><path d="M512 85.8L421.1 78.8L412.2 137.7Z" fill="#e6a4af" stroke="#e6a4af"></path><path d="M0 373.2L0 460.1L43.9 441.1Z" fill="#aa626d" stroke="#aa626d"></path><path d="M427.1 0L385.2 0L413.2 75.9Z" fill="#f3b2bd" stroke="#f3b2bd"></path><path d="M158.7 0L94.8 0L76.9 34.9Z" fill="#c27c87" stroke="#c27c87"></path><path d="M76.9 34.9L0 27.9L21.9 91.8Z" fill="#f3b2bd" stroke="#f3b2bd"></path><path d="M512 178.7L512 85.8L416.2 149.8Z" fill="#924854" stroke="#924854"></path><path d="M458.1 54.9L427.1 0L413.2 75.9Z" fill="#ce8994" stroke="#ce8994"></path><path d="M94.8 0L82.9 0L76.9 34.9Z" fill="#9e5560" stroke="#9e5560"></path><path d="M451.1 512L512 481.1L447.1 454.1Z" fill="#e6a4af" stroke="#e6a4af"></path><path d="M512 0L427.1 0L458.1 54.9Z" fill="#f3b2bd" stroke="#f3b2bd"></path><path d="M0 460.1L0 512L67.9 512Z" fill="#ce8994" stroke="#ce8994"></path><path d="M451.1 512L512 512L512 481.1Z" fill="#e6a4af" stroke="#e6a4af"></path><path d="M512 85.8L512 35.9L458.1 54.9Z" fill="#f3b2bd" stroke="#f3b2bd"></path><path d="M0 0L0 27.9L76.9 34.9Z" fill="#aa626d" stroke="#aa626d"></path><path d="M82.9 0L0 0L76.9 34.9Z" fill="#924854" stroke="#924854"></path><path d="M512 35.9L512 0L458.1 54.9Z" fill="#e6a4af" stroke="#e6a4af"></path> fill"url(#img1) </g>
<rect width="100%" height="100%" fill="url(#visual)" />
  <image xlink:href="whimage-trans.png" x="60" y="50" width="400" height="400" />
</svg>